<svg width="46" height="29" viewBox="0 0 46 29" fill="none" xmlns="http://www.w3.org/2000/svg">
<g clip-path="url(#clip0_2505_223)">
<path d="M45.0935 28.6067V28.6813H45.1793C45.1954 28.6815 45.2113 28.6782 45.2253 28.6718C45.2309 28.6686 45.2354 28.6643 45.2384 28.6593C45.2414 28.6543 45.2429 28.6488 45.2426 28.6433C45.2429 28.6378 45.2414 28.6324 45.2384 28.6276C45.2354 28.6227 45.2309 28.6185 45.2253 28.6155C45.2115 28.6088 45.1955 28.6054 45.1793 28.606H45.0935V28.6067ZM45.1802 28.554C45.217 28.5522 45.2534 28.5607 45.2833 28.5782C45.2952 28.5862 45.3047 28.5963 45.311 28.6077C45.3173 28.6192 45.3202 28.6317 45.3194 28.6442C45.3199 28.655 45.3176 28.6657 45.3126 28.6757C45.3076 28.6857 45.3001 28.6947 45.2904 28.7022C45.2674 28.7184 45.2385 28.7281 45.2081 28.7299L45.3231 28.8362H45.2345L45.1287 28.7307H45.0944V28.8362H45.0204V28.5542H45.1814L45.1802 28.554ZM45.1572 28.9335C45.1961 28.9338 45.2346 28.9274 45.2702 28.9148C45.3045 28.9028 45.3357 28.8857 45.3622 28.8643C45.3887 28.8429 45.4098 28.8176 45.4245 28.7898C45.4547 28.7307 45.4547 28.6643 45.4245 28.6052C45.4096 28.5775 45.3885 28.5522 45.3622 28.5307C45.3357 28.5093 45.3045 28.4922 45.2702 28.4802C45.2343 28.4683 45.1959 28.4623 45.1572 28.4627C45.1179 28.4624 45.0788 28.4683 45.0422 28.4802C45.0071 28.4919 44.9752 28.5091 44.9482 28.5307C44.9075 28.5645 44.88 28.6073 44.869 28.6537C44.8581 28.7001 44.8643 28.748 44.8868 28.7916C44.9008 28.8196 44.9217 28.845 44.9482 28.8662C44.9752 28.8878 45.0072 28.9049 45.0422 28.9167C45.0786 28.9293 45.1177 28.9356 45.1572 28.9353M45.1572 28.3948C45.2583 28.3947 45.3554 28.4269 45.4275 28.4843C45.4622 28.5119 45.4899 28.5447 45.5089 28.581C45.5286 28.6183 45.5387 28.6584 45.5387 28.6989C45.5387 28.7394 45.5286 28.7795 45.5089 28.8168C45.4895 28.8529 45.4619 28.8857 45.4275 28.9135C45.3922 28.9409 45.3512 28.963 45.3063 28.9787C45.2592 28.995 45.2084 29.0032 45.1572 29.003C45.1054 29.0033 45.0541 28.995 45.0064 28.9787C44.961 28.9634 44.9195 28.9413 44.8842 28.9135C44.8499 28.8847 44.8226 28.8508 44.804 28.8136C44.7843 28.7764 44.7742 28.7363 44.7742 28.6957C44.7742 28.6552 44.7843 28.6151 44.804 28.5779C44.8229 28.5416 44.8506 28.5087 44.8854 28.4811C44.9202 28.4529 44.9618 28.4307 45.0075 28.4159C45.0553 28.3996 45.1066 28.3914 45.1584 28.3917M9.93964 27.3058C9.93964 26.7681 10.3743 26.3264 11.0848 26.3264C11.7638 26.3264 12.2219 26.7491 12.2219 27.3058C12.2219 27.8625 11.7638 28.2852 11.0848 28.2852C10.3743 28.2852 9.93964 27.8435 9.93964 27.3058M12.9959 27.3058V25.7757H12.175V26.1484C11.9146 25.873 11.5197 25.7002 10.9827 25.7002C9.92469 25.7002 9.09439 26.3727 9.09439 27.3066C9.09439 28.2405 9.92423 28.913 10.9827 28.913C11.5195 28.913 11.9146 28.74 12.175 28.4647V28.8362H12.995V27.3058H12.9959ZM40.732 27.3058C40.732 26.7681 41.1667 26.3264 41.8774 26.3264C42.5571 26.3264 43.0146 26.7491 43.0146 27.3058C43.0146 27.8625 42.5571 28.2852 41.8774 28.2852C41.167 28.2852 40.732 27.8435 40.732 27.3058ZM43.7892 27.3058V24.5475H42.9676V26.1484C42.7073 25.873 42.3124 25.7002 41.7753 25.7002C40.7173 25.7002 39.887 26.3727 39.887 27.3066C39.887 28.2405 40.7169 28.913 41.7753 28.913C42.3124 28.913 42.7073 28.74 42.9676 28.4647V28.8362H43.7892V27.3058ZM23.184 26.2949C23.713 26.2949 24.0527 26.5637 24.1394 27.0369H22.1807C22.2683 26.5952 22.5993 26.2949 23.1842 26.2949M23.2005 25.6985C22.0942 25.6985 21.3203 26.3509 21.3203 27.3049C21.3203 28.2776 22.1253 28.9113 23.2555 28.9113C23.824 28.9113 24.3448 28.7963 24.8029 28.4826L24.4007 27.9897C24.0842 28.1947 23.6812 28.3097 23.3024 28.3097C22.7734 28.3097 22.2918 28.1112 22.1733 27.5604H24.9763C24.9844 27.4777 24.9927 27.3942 24.9927 27.3047C24.9844 26.351 24.2567 25.6984 23.2001 25.6984M33.1108 27.3047C33.1108 26.767 33.5455 26.3253 34.2559 26.3253C34.9349 26.3253 35.393 26.748 35.393 27.3047C35.393 27.8614 34.9349 28.2841 34.2559 28.2841C33.5455 28.2841 33.1105 27.8424 33.1105 27.3047M36.1668 27.3047V25.7757H35.3464V26.1484C35.0851 25.873 34.6911 25.7002 34.154 25.7002C33.096 25.7002 32.2657 26.3727 32.2657 27.3066C32.2657 28.2405 33.0956 28.913 34.154 28.913C34.6911 28.913 35.0851 28.74 35.3464 28.4647V28.8362H36.167V27.3058L36.1668 27.3047ZM28.4751 27.3047C28.4751 28.2327 29.2723 28.9111 30.489 28.9111C31.0575 28.9111 31.4364 28.8086 31.846 28.5464L31.4518 28.0087C31.1436 28.1881 30.82 28.2841 30.4628 28.2841C29.8075 28.2776 29.3256 27.8937 29.3256 27.3047C29.3256 26.7158 29.8075 26.332 30.4628 26.3253C30.819 26.3253 31.1426 26.4213 31.4518 26.6008L31.846 26.0631C31.4357 25.8009 31.0569 25.6984 30.489 25.6984C29.2723 25.6984 28.4751 26.3766 28.4751 27.3047M39.0574 25.6984C38.5838 25.6984 38.2754 25.8778 38.0622 26.1466V25.7757H37.2487V28.8345H38.0705V27.1198C38.0705 26.6136 38.3389 26.3324 38.8755 26.3324C39.0512 26.3303 39.2257 26.3565 39.3888 26.4094L39.6418 25.7824C39.4601 25.7244 39.2232 25.6989 39.0569 25.6989M17.0542 26.0189C16.6593 25.8079 16.1151 25.6989 15.5148 25.6989C14.5585 25.6989 13.9428 26.0704 13.9428 26.6781C13.9428 27.1769 14.4012 27.4846 15.2453 27.5806L15.6331 27.6253C16.0832 27.6765 16.2957 27.7725 16.2957 27.9453C16.2957 28.1818 15.9967 28.3167 15.4353 28.3167C14.8667 28.3167 14.4564 28.1695 14.1797 27.9967L13.794 28.5154C14.2441 28.7842 14.8126 28.9124 15.4284 28.9124C16.5186 28.9124 17.1504 28.4964 17.1504 27.914C17.1504 27.3763 16.6531 27.0951 15.8315 26.9991L15.4447 26.9536C15.0893 26.9163 14.8046 26.8584 14.8046 26.6533C14.8046 26.4297 15.073 26.2951 15.5233 26.2951C16.0052 26.2951 16.4716 26.4424 16.7003 26.5574L17.0556 26.0197L17.0542 26.0189ZM27.646 25.6995C27.1724 25.6995 26.864 25.879 26.6517 26.1477V25.7757H25.8382V28.8345H26.659V27.1198C26.659 26.6136 26.9274 26.3324 27.464 26.3324C27.6397 26.3303 27.8142 26.3565 27.9774 26.4094L28.2304 25.7824C28.0487 25.7244 27.8118 25.6989 27.6455 25.6989M20.6411 25.7757H19.2988V24.8477H18.469V25.7757H17.7033V26.3837H18.469V27.779C18.469 28.4888 18.8089 28.9115 19.78 28.9115C20.1362 28.9115 20.5465 28.822 20.8069 28.675L20.5698 28.1054C20.3248 28.2204 20.0564 28.2783 19.843 28.2783C19.4327 28.2783 19.2988 28.0733 19.2988 27.7664V26.3842H20.6411V25.7757ZM8.36851 28.8352V26.9156C8.36851 26.1926 7.79995 25.7062 6.8834 25.6997C6.40155 25.6931 5.90452 25.8147 5.55653 26.2439C5.29617 25.9047 4.88585 25.6997 4.30901 25.6997C3.90582 25.6997 3.51183 25.7956 3.2034 26.1539V25.7757H2.38184V28.8345H3.20984V27.1385C3.20984 26.6075 3.57324 26.3253 4.13444 26.3253C4.67954 26.3253 4.95531 26.6133 4.95531 27.1318V28.8341H5.78515V27.1381C5.78515 26.6071 6.16396 26.3249 6.70883 26.3249C7.26934 26.3249 7.53683 26.6129 7.53683 27.1314V28.8337L8.36851 28.8352Z" fill="#231F20"/>
<path d="M45.5616 18.6603V18.213H45.4178L45.2516 18.52L45.0862 18.213H44.942V18.6603H45.0441V18.3233L45.1996 18.6141H45.3054L45.4609 18.3226V18.6603H45.5621H45.5616ZM44.6496 18.6603V18.2896H44.8336V18.2141H44.3635V18.2896H44.5475V18.6603H44.6487H44.6496Z" fill="#F79410"/>
<path d="M29.2232 20.5786H16.7834V2.46289H29.2235L29.2232 20.5786Z" fill="#FF5F00"/>
<path d="M17.572 11.5211C17.572 7.84629 19.6954 4.5728 23.0018 2.46321C20.499 0.864014 17.4034 -0.00392575 14.2161 -0.000109539C6.36456 -0.000109539 0 5.15801 0 11.5211C0 17.8841 6.36456 23.0422 14.2161 23.0422C17.4035 23.0461 20.4992 22.1781 23.0021 20.5789C19.6958 18.4697 17.572 15.196 17.572 11.5211Z" fill="#EB001B"/>
<path d="M46.0057 11.5212C46.0057 17.8842 39.6411 23.0423 31.7896 23.0423C28.6019 23.0461 25.5058 22.1782 23.0024 20.579C26.3098 18.4694 28.4332 15.1961 28.4332 11.5212C28.4332 7.84623 26.3098 4.57292 23.0024 2.46333C25.5058 0.864184 28.6017 -0.00373679 31.7894 1.20938e-05C39.6409 1.20938e-05 46.0054 5.15814 46.0054 11.5212" fill="#F79E1B"/>
</g>
<defs>
<clipPath id="clip0_2505_223">
<rect width="46" height="29" fill="white"/>
</clipPath>
</defs>
</svg>
