<svg width="39" height="28" viewBox="0 0 39 28" fill="none" xmlns="http://www.w3.org/2000/svg">
<g clip-path="url(#clip0_2509_319)">
<path d="M13.0392 18.6385C9.04015 15.7675 4.01304 21.0198 4.01304 21.0198L5.88664 20.6079L1.79689 24.0696L4.48965 23.55L0 28L6.19818 24.7767L5.4744 26.7099L10.296 23.7736L9.72227 25.1188C9.72235 25.1189 17.0382 21.5096 13.0392 18.6385Z" fill="#F9D026"/>
<path d="M13.0392 18.6384L0 27.9998L6.19818 24.7766L5.4744 26.7098L10.296 23.7735L9.72227 25.1187C9.72235 25.1187 17.0382 21.5095 13.0392 18.6384Z" fill="#E7C224"/>
<path d="M13.956 12.1865L4.09863 10.9937L9.27741 7.27563L19.1348 8.46842L13.956 12.1865Z" fill="#F74D37"/>
<path d="M22.0259 17.9805L23.6873 25.0576L28.8661 21.3395L27.2047 14.2625L22.0259 17.9805Z" fill="#C43D2C"/>
<path d="M35.4526 8.74395C38.7071 4.71731 39 0.000408203 39 0.000244141C39 0.000244141 32.4299 0.210408 26.8213 2.54704C25.5269 3.08637 24.2839 3.73874 23.1844 4.5281C23.1844 4.5281 12.827 11.9642 10.9766 13.2926C9.12618 14.6212 9.07995 17.0457 12.1691 19.2635C15.2582 21.4814 18.6352 21.4481 20.4857 20.1197C22.3361 18.7912 32.6935 11.3551 32.6935 11.3551C33.7928 10.5657 34.7016 9.67326 35.4526 8.74395Z" fill="#EDEEF0"/>
<path d="M35.4525 8.74396C38.7069 4.71731 38.9999 0.000408203 38.9999 0.000244141L31.1368 5.64553L15.731 16.7061L12.1689 19.2635C15.2581 21.4813 18.635 21.4481 20.4855 20.1196C22.3359 18.7911 32.6933 11.3551 32.6933 11.3551C33.7926 10.5657 34.7014 9.67326 35.4525 8.74396Z" fill="#DCDEE2"/>
<path d="M39 0.000244141C39 0.000244141 32.4299 0.210408 26.8213 2.54704L31.137 5.64547L35.4526 8.7439C38.7071 4.71731 39 0.000408203 39 0.000244141Z" fill="#F74D37"/>
<path d="M15.7311 16.706L10.9766 13.2925C9.12618 14.621 9.07995 17.0455 12.1691 19.2634C15.2582 21.4812 18.6352 21.448 20.4857 20.1195L15.7311 16.706Z" fill="#444242"/>
<path d="M20.4855 20.1195L15.731 16.7061L12.1689 19.2634C15.258 21.4813 18.6351 21.448 20.4855 20.1195Z" fill="#3A3839"/>
<path d="M26.274 11.3658C27.9889 11.3658 29.3791 10.3677 29.3791 9.13651C29.3791 7.90531 27.9889 6.90723 26.274 6.90723C24.5591 6.90723 23.1689 7.90531 23.1689 9.13651C23.1689 10.3677 24.5591 11.3658 26.274 11.3658Z" fill="#BCE8F7"/>
<path d="M20.7986 13.0676L12.7371 17.1955L6.98746 22.9833L6.9873 22.9834L15.049 18.8555L20.7986 13.0676Z" fill="#F74D37"/>
<path d="M15.049 18.8557L20.7986 13.0679L6.98746 22.9836L6.9873 22.9836L15.049 18.8557Z" fill="#C43D2C"/>
<path d="M38.9998 0.000244141L31.1367 5.64553L35.4524 8.74396C38.7068 4.71737 38.9998 0.000462891 38.9998 0.000244141Z" fill="#C43D2C"/>
<path d="M28.4698 10.713C29.6824 9.84241 29.6824 8.43093 28.4698 7.5603L24.0786 10.713C25.2911 11.5836 27.2572 11.5836 28.4698 10.713Z" fill="#8EC1D6"/>
</g>
<defs>
<clipPath id="clip0_2509_319">
<rect width="39" height="28" fill="white"/>
</clipPath>
</defs>
</svg>
